<?xml version="1.0" encoding="UTF-8"?>
<!DOCTYPE svg PUBLIC "-//W3C//DTD SVG 1.1//EN" "http://www.w3.org/Graphics/SVG/1.1/DTD/svg11.dtd">
<!-- Creator: CorelDRAW X7 -->
<svg xmlns="http://www.w3.org/2000/svg" xml:space="preserve" width="14cm" height="12cm" version="1.1" style="shape-rendering:geometricPrecision; text-rendering:geometricPrecision; image-rendering:optimizeQuality; fill-rule:evenodd; clip-rule:evenodd"
viewBox="0 0 14000 12000"
 xmlns:xlink="http://www.w3.org/1999/xlink">
 <defs>
  <style type="text/css">
   <![CDATA[
    .fil3 {fill:#126A98}
    .fil4 {fill:#FEFEFE;fill-rule:nonzero}
    .fil0 {fill:#373435;fill-rule:nonzero}
    .fil1 {fill:black;fill-rule:nonzero}
    .fil2 {fill:#126A98;fill-rule:nonzero}
   ]]>
  </style>
 </defs>
 <g id="Layer_x0020_1">
  <metadata id="CorelCorpID_0Corel-Layer"/>
  <path class="fil0" d="M12015 9524l209 0c74,0 127,-12 159,-37 33,-25 49,-66 49,-122 0,-26 -5,-49 -16,-70 -10,-20 -24,-37 -43,-49 -15,-10 -32,-17 -53,-22 -20,-4 -54,-6 -100,-6l-31 0 -174 0 0 306zm-73 418l0 -789 263 0c62,0 106,3 133,8 27,4 51,13 72,24 31,18 55,42 71,73 17,31 25,66 25,105 0,48 -10,89 -32,123 -22,33 -53,56 -95,71 32,11 56,27 69,49 14,22 24,67 30,134l10 119c1,18 4,34 9,46 4,12 9,21 16,27l0 10 -80 0c-4,-8 -8,-19 -11,-32 -3,-13 -5,-29 -6,-49l-9 -104c-6,-72 -19,-118 -39,-138 -20,-20 -61,-30 -123,-30l-230 0 0 353 -73 0zm715 0l0 -789 75 0 0 789 -75 0zm296 -394c0,108 26,194 77,257 52,63 122,95 210,95 88,0 158,-32 210,-95 51,-63 77,-148 77,-257 0,-108 -26,-194 -77,-257 -52,-63 -122,-95 -210,-95 -87,0 -157,32 -209,96 -52,63 -78,149 -78,256zm-74 0c0,-128 32,-229 97,-304 65,-75 153,-112 264,-112 111,0 199,37 264,112 66,75 98,176 98,304 0,128 -32,230 -98,304 -65,75 -153,112 -264,112 -111,0 -199,-37 -264,-112 -65,-74 -97,-176 -97,-304z"/>
  <path class="fil1" d="M398 8819l419 -2177c261,-22 476,-33 645,-33 168,0 306,7 415,21 109,15 199,41 273,78 146,71 219,204 219,399 0,113 -49,217 -146,313 -91,86 -186,139 -286,159 106,18 197,67 272,146 80,85 120,192 120,323 0,252 -94,452 -282,600 -189,147 -468,221 -838,221 -255,0 -525,-17 -811,-50zm738 -193c20,2 32,3 36,3l30 0c182,0 312,-59 389,-179 58,-93 87,-225 87,-396 0,-90 -30,-160 -89,-209 -58,-49 -154,-75 -287,-80l-166 861zm671 -1516c0,-183 -88,-275 -266,-275l-30 0c-8,0 -20,1 -33,3l-133 701 33 0c286,-6 429,-149 429,-429zm886 1626c-52,-58 -90,-132 -113,-223 -23,-91 -35,-210 -35,-359 0,-148 26,-290 77,-425 50,-136 123,-252 216,-349 190,-204 443,-306 757,-306 113,0 211,19 293,56l568 -56 -246 1296c-6,27 -10,64 -10,113 0,49 15,89 45,120 30,31 67,49 112,53 -23,75 -74,135 -155,179 -81,45 -167,67 -258,67 -90,0 -166,-17 -227,-52 -61,-34 -101,-80 -118,-137 -36,55 -91,100 -166,136 -76,35 -164,53 -265,53 -101,0 -192,-13 -274,-40 -82,-27 -149,-69 -201,-126zm701 -1350c-25,40 -49,94 -71,162 -22,67 -52,191 -88,372 -37,180 -55,335 -55,463 0,129 10,212 30,250 20,37 47,56 83,56 71,0 132,-34 184,-101 52,-68 88,-161 108,-281l177 -974c-47,-40 -97,-60 -152,-60 -54,0 -97,9 -129,27 -32,18 -61,46 -87,86zm2039 1267c-68,166 -212,249 -432,249 -113,0 -205,-39 -276,-116 -59,-69 -89,-138 -89,-206 0,-180 41,-445 123,-795l123 -645 674 -66 -202 1050c-38,164 -57,275 -57,333 0,126 46,191 136,196zm-491 -1975c0,-86 36,-153 108,-199 72,-47 160,-70 264,-70 104,0 188,23 251,70 63,46 94,113 94,199 0,87 -34,152 -104,196 -70,45 -157,67 -261,67 -104,0 -189,-22 -254,-67 -66,-44 -98,-109 -98,-196zm1216 2167c-71,38 -155,57 -253,57 -97,0 -172,-25 -226,-75 -53,-50 -79,-123 -79,-219 0,-97 33,-192 101,-286 68,-94 152,-168 253,-221 100,-53 186,-95 257,-126l-209 -482c-38,-82 -92,-123 -163,-123l-27 3 -10 0c14,-78 66,-146 157,-206 90,-62 188,-93 292,-93 168,0 291,84 369,252l27 54 143 352c59,-27 102,-65 128,-115 25,-50 38,-124 38,-222 0,-99 -27,-179 -80,-241 84,-54 182,-80 292,-80 200,0 300,96 300,289 0,211 -132,377 -396,499l-199 93 179 462c36,93 85,159 150,199 26,18 55,28 86,30 -66,109 -172,187 -316,236 -44,13 -96,20 -156,20 -60,0 -124,-21 -193,-62 -68,-41 -115,-93 -139,-157l-183 -476c-124,56 -186,184 -186,386 0,93 14,177 43,252zm1527 -109c-52,-58 -89,-132 -113,-223 -23,-91 -35,-210 -35,-359 0,-148 26,-290 77,-425 51,-136 123,-252 216,-349 190,-204 443,-306 758,-306 113,0 210,19 292,56l569 -56 -246 1296c-7,27 -10,64 -10,113 0,49 15,89 45,120 29,31 67,49 111,53 -22,75 -74,135 -155,179 -81,45 -166,67 -257,67 -91,0 -167,-17 -228,-52 -61,-34 -100,-80 -118,-137 -35,55 -91,100 -166,136 -75,35 -164,53 -264,53 -101,0 -193,-13 -275,-40 -82,-27 -149,-69 -201,-126zm702 -1350c-26,40 -50,94 -72,162 -22,67 -51,191 -88,372 -36,180 -55,335 -55,463 0,129 10,212 30,250 20,37 48,56 83,56 71,0 133,-34 185,-101 52,-68 88,-161 108,-281l176 -974c-47,-40 -97,-60 -151,-60 -55,0 -98,9 -130,27 -32,18 -61,46 -86,86zm2275 -312c80,0 150,9 212,26 3,-8 6,-25 10,-49l17 -103c9,-45 20,-103 33,-177l53 -262 662 -67 -369 1928c-2,13 -3,31 -3,53l0 54c0,48 12,91 36,127 25,37 57,55 97,55 -45,104 -134,179 -270,223 -46,13 -102,20 -167,20 -66,0 -128,-17 -188,-52 -60,-34 -99,-80 -117,-137 -35,57 -88,103 -159,137 -71,35 -158,52 -261,52 -103,0 -197,-13 -283,-40 -85,-27 -154,-69 -207,-126 -98,-113 -147,-298 -147,-555 0,-333 98,-600 293,-801 195,-204 448,-306 758,-306zm-24 199c-82,0 -145,45 -189,133 -44,89 -89,243 -135,462 -45,220 -68,428 -68,625 0,135 40,203 120,203 71,0 131,-36 181,-106 50,-71 85,-166 105,-283l179 -974c-46,-40 -111,-60 -193,-60zm1199 1463c-52,-58 -90,-132 -113,-223 -24,-91 -35,-210 -35,-359 0,-148 25,-290 76,-425 51,-136 123,-252 216,-349 191,-204 443,-306 758,-306 113,0 211,19 293,56l568 -56 -246 1296c-7,27 -10,64 -10,113 0,49 15,89 45,120 30,31 67,49 111,53 -22,75 -73,135 -154,179 -81,45 -167,67 -258,67 -91,0 -167,-17 -228,-52 -61,-34 -100,-80 -118,-137 -35,55 -90,100 -166,136 -75,35 -163,53 -264,53 -101,0 -192,-13 -274,-40 -82,-27 -149,-69 -201,-126zm701 -1350c-25,40 -49,94 -71,162 -23,67 -52,191 -89,372 -36,180 -54,335 -54,463 0,129 10,212 30,250 19,37 47,56 83,56 71,0 132,-34 184,-101 52,-68 88,-161 108,-281l176 -974c-46,-40 -97,-60 -151,-60 -54,0 -97,9 -130,27 -32,18 -60,46 -86,86z"/>
  <path class="fil2" d="M6144 8849c-71,38 -155,57 -253,57 -97,0 -173,-25 -226,-75 -53,-50 -80,-123 -80,-219 0,-97 34,-192 102,-286 67,-94 151,-168 252,-221 101,-53 187,-95 258,-126l-210 -482c-37,-82 -91,-123 -162,-123l-27 3 -10 0c13,-78 65,-146 156,-206 91,-62 189,-93 293,-93 168,0 291,84 369,252l26 54 143 352c60,-27 103,-65 128,-115 26,-50 38,-124 38,-222 0,-99 -26,-179 -79,-241 84,-54 181,-80 292,-80 200,0 299,96 299,289 0,211 -132,377 -395,499l-200 93 180 462c35,93 85,159 149,199 27,18 56,28 87,30 -67,109 -172,187 -316,236 -44,13 -96,20 -156,20 -60,0 -124,-21 -193,-62 -69,-41 -115,-93 -140,-157l-182 -476c-124,56 -186,184 -186,386 0,93 14,177 43,252z"/>
  <g id="_646824400">
   <circle class="fil3" cx="2839" cy="4249" r="2214"/>
   <polygon class="fil3" points="3787,6149 4840,6287 4687,5212 "/>
  </g>
  <g id="_646847664">
   <path class="fil4" d="M2673 3501c15,-93 49,-157 104,-193 54,-36 117,-54 189,-54 82,0 149,25 201,75 52,50 78,115 78,194 0,41 -6,91 -19,151 -12,60 -28,129 -48,206l-271 1100c-22,88 -58,156 -109,204 -51,49 -122,73 -213,73l-94 0c-91,0 -160,-24 -206,-71 -45,-48 -77,-119 -95,-214l-169 -896 -5 0 -170 896c-17,95 -49,166 -95,214 -46,47 -114,71 -205,71l-94 0c-92,0 -163,-24 -214,-73 -51,-48 -87,-116 -108,-204l-272 -1100c-19,-77 -35,-146 -48,-206 -12,-60 -19,-110 -19,-151 0,-79 26,-144 78,-194 52,-50 119,-75 202,-75 71,0 134,18 189,54 54,36 89,100 103,193l169 1053 6 0 169 -1002c9,-54 20,-99 33,-137 14,-37 32,-68 55,-92 24,-25 53,-42 89,-53 36,-11 81,-16 134,-16 54,0 99,5 135,16 35,11 65,28 88,53 23,24 42,55 55,92 14,38 25,83 34,137l169 1002 5 0 169 -1053z"/>
   <path class="fil4" d="M4204 4156c25,0 50,-4 75,-12 26,-8 48,-20 68,-36 19,-16 35,-37 48,-62 12,-25 19,-54 19,-86 0,-64 -21,-114 -63,-150 -42,-36 -101,-54 -176,-54l-312 0 0 400 341 0zm-942 -499c0,-129 29,-223 86,-281 57,-58 146,-87 266,-87l558 0c118,0 229,10 332,31 103,20 192,56 267,107 75,51 134,120 178,206 44,86 66,194 66,325 0,130 -22,238 -66,323 -44,85 -103,153 -178,204 -75,51 -164,87 -267,107 -103,21 -214,31 -332,31l-309 0 0 312c0,104 -26,183 -78,239 -51,55 -126,83 -222,83 -97,0 -171,-28 -223,-83 -52,-56 -78,-135 -78,-239l0 -1278z"/>
  </g>
 </g>
</svg>
